<svg xmlns="http://www.w3.org/2000/svg" width="246" height="54" fill="none" viewBox="0 0 246 54"><path fill="#EFEAE7" d="M37.547 2.388c.159 4.848.159 15.338.159 21.617.079 3.655.476 11.762 1.35 17.881l-.476.16c-2.305-5.325-5.802-11.524-10.093-18.757-5.405-8.98-10.412-17.96-11.683-20.901-1.59.159-14.067.238-16.054 0 .397 17.723.397 41.644 0 49.91 1.59-.08 8.742-.08 10.332 0-.16-5.405-.239-15.26-.239-21.935 0-4.212-.794-12.637-1.43-18.756l.794-.16c2.146 4.213 5.166 9.697 8.425 15.18 6.358 10.73 13.749 22.65 14.861 25.67 2.703-.158 11.445-.158 13.75 0-.557-7.311-.239-41.088.238-49.91h-9.934ZM72.376 19.554c6.199 0 9.854 3.815 9.775 10.332-7.073.238-15.339.238-20.822.238.715-7.152 4.53-10.57 11.047-10.57Zm19.312 24.32c-1.749-.954-5.802-3.577-7.232-4.69-1.67 3.02-4.61 6.04-11.286 6.04-7.152 0-11.126-3.338-11.841-9.934 8.265-.159 21.696-.08 30.359 0 .238-1.669.397-3.656.397-5.007 0-12.477-7.947-18.2-19.71-18.2-14.305 0-21.14 8.504-21.14 20.743 0 12.08 6.438 20.346 21.856 20.346 9.696 0 15.497-3.974 18.597-9.299ZM154.287 3.42c-3.656.16-6.358.16-10.332 0 .08 2.782.08 6.12.08 9.776-3.179-.08-5.643-.159-6.835-.238.238 2.94.318 6.437.159 9.378 1.112-.08 3.497-.16 6.517-.16-.08 5.802-.159 11.525-.159 15.498 0 10.252 4.291 15.418 15.577 15.418 4.768 0 8.821-.874 12.875-3.894-1.51-2.225-3.497-5.802-4.769-8.345-2.146 1.51-4.053 2.702-7.232 2.702-4.53 0-6.755-2.304-6.755-7.868 0-2.463 0-7.788.159-13.59 7.073 0 14.305.08 16.848.239-.159-2.861-.318-6.358-.159-9.378-2.464.159-9.457.238-16.53.238.158-4.132.317-7.709.556-9.775ZM191.041 45.701c-4.927 0-7.55-1.669-7.55-5.325 0-2.94 2.067-5.404 8.663-5.404 2.623 0 5.722.08 8.822.398 0 6.914-3.736 10.331-9.935 10.331Zm21.22 6.596c-.715-5.96-.636-19.947-.636-24.24 0-10.33-6.517-15.973-17.961-15.973-11.365 0-16.849 5.563-18.438 13.192 3.338.318 6.676.795 10.093 1.67.715-4.133 3.1-6.836 7.948-6.836 5.642 0 7.788 3.18 7.788 8.027 0 .716 0 1.749-.079 2.94-3.418-.397-7.153-.635-10.571-.635-12.08 0-16.848 4.45-16.848 11.365 0 6.199 4.053 11.285 13.908 11.285 5.325 0 10.649-2.463 13.431-8.424h.238c.08 1.828.239 3.974.477 7.63h10.65ZM244.866 12.64c-1.43-.398-2.781-.556-4.53-.556-6.596 0-10.093 4.37-12 14.067h-.477c-.08-5.802 0-10.57-.08-13.193h-9.695c.556 12.557.318 31.154-.08 39.34 3.497-.239 7.55-.16 10.888 0-.159-7.074-.079-13.273-.079-17.485 0-7.868 4.212-12 8.821-12 1.828 0 3.974.318 5.325.953l1.907-11.126ZM136.579 24.558c1.286 4.602-.901 12.262-11.464 9.998-4.877-1.045-7.258-4.7-10.006-8.06-1.795-2.196-3.126-3.754-6.216-4.177-7.205-.987-10.81 5.222-10.438 11.629.268 4.612 2.854 12.582 12.554 10.734 9.507-3.43 13.485-.53 7.349 1.848-7.939 3.079 0 6.72 8.223-2.17 7.534-8.146 10.314-4.308 7.663-.05-3.95 5.385-10.571 8.917-18.072 8.917-12.102 0-21.912-9.192-21.912-20.531 0-11.34 9.81-20.532 21.912-20.532 9.95 0 18.072 5.27 20.407 12.394Z"/></svg>