<svg width="328" height="64" viewBox="0 0 328 64" fill="none" xmlns="http://www.w3.org/2000/svg">
<path fill-rule="evenodd" clip-rule="evenodd" d="M2.34375 61.6567L34.3345 34.3337L57.172 57.1712C59.6918 59.691 57.9072 63.9996 54.3435 63.9996L8.00039 63.9996C5.79136 63.9996 3.79145 63.1042 2.34375 61.6567Z" fill="#BC6AFD"/>
<path d="M7.99895 0C3.58115 0.000568939 0 3.58207 0 8V56C0 58.2091 0.895431 60.2091 2.34315 61.6569L57.1716 6.82843C59.6908 4.30922 57.9077 0.00221426 54.3459 7.85711e-07L7.99895 0Z" fill="#C7F454"/>
<path d="M145.25 4.625H280V17.5H145.25V4.625Z" fill="#BC6AFD"/>
<path d="M100.53 47.0899L107.32 39.2499L120.62 56.7499H135.04L115.37 30.0099L133.5 9.14992H119.5L100.53 30.7799V9.14992H88.7002V56.7499H100.53V47.0899Z" fill="#C7F454"/>
<path d="M150.898 56.7499V22.7999H139.558V56.7499H150.898Z" fill="#C7F454"/>
<path d="M179.549 21.7499C175.909 21.7499 172.899 22.9399 170.169 25.1099V22.7999H158.829V56.7499H170.169V35.4699C172.129 33.2299 174.369 32.0399 176.469 32.0399C180.179 32.0399 182.629 34.3499 182.629 39.1799V56.7499H194.039V37.3599C194.039 27.6999 188.159 21.7499 179.549 21.7499Z" fill="#C7F454"/>
<path d="M234.818 39.0399C234.818 28.8199 227.328 22.0299 217.458 22.0299C206.608 22.0299 199.398 29.4499 199.398 39.7399C199.398 50.0999 206.818 57.5199 217.948 57.5199C226.348 57.5199 232.858 53.1099 234.468 46.1099H223.268C222.288 47.6499 220.468 48.5599 218.088 48.5599C213.748 48.5599 211.368 46.1799 210.458 43.0999H234.678L234.608 42.8899C234.818 41.6299 234.818 40.2999 234.818 39.0399ZM217.458 30.7799C221.098 30.7799 223.548 32.7399 224.178 36.4499H210.318C211.158 33.0199 213.608 30.7799 217.458 30.7799Z" fill="#C7F454"/>
<path d="M268.295 56.1199L267.035 46.5299C264.515 47.0199 262.625 47.3699 261.015 47.3699C257.655 47.3699 255.695 45.6899 255.695 42.2599V32.5299H267.245V22.7999H255.695H244.355H237.705V32.5299H244.355V42.6099C244.355 51.7799 249.815 57.7999 258.005 57.7999C261.365 57.7999 263.885 57.5199 268.295 56.1199Z" fill="#C7F454"/>
<path d="M279.826 17.4799C283.466 17.4799 286.476 14.7499 286.476 11.1099C286.476 7.39992 283.466 4.66992 279.826 4.66992C276.116 4.66992 273.176 7.39992 273.176 11.1099C273.176 14.7499 276.116 17.4799 279.826 17.4799ZM285.566 56.7499V22.7999H274.226V56.7499H285.566Z" fill="#C7F454"/>
<path d="M310.302 47.9299C305.472 47.9299 302.532 44.3599 302.532 39.7399C302.532 35.1199 305.472 31.6199 310.302 31.6199C313.802 31.6199 316.392 33.6499 316.952 36.7299H327.662C326.892 27.9799 319.682 22.0299 310.302 22.0299C299.592 22.0299 291.752 29.4499 291.752 39.7399C291.752 50.0999 299.592 57.5199 310.302 57.5199C319.682 57.5199 326.892 51.5699 327.662 42.8199H316.952C316.392 45.8999 313.802 47.9299 310.302 47.9299Z" fill="#C7F454"/>
<path d="M151.75 11.0977C151.75 14.7561 148.751 17.5 145.125 17.5C141.429 17.5 138.5 14.7561 138.5 11.0977C138.5 7.36885 141.429 4.625 145.125 4.625C148.751 4.625 151.75 7.36885 151.75 11.0977Z" fill="#BC6AFD"/>
<path d="M286.438 11.0977C286.438 14.7561 283.439 17.5 279.813 17.5C276.116 17.5 273.188 14.7561 273.188 11.0977C273.188 7.36885 276.116 4.625 279.813 4.625C283.439 4.625 286.438 7.36885 286.438 11.0977Z" fill="#C7F454"/>
</svg>
