<svg width="32" height="32" viewBox="0 0 32 32" fill="none" xmlns="http://www.w3.org/2000/svg">
<path fill-rule="evenodd" clip-rule="evenodd" d="M30.6663 6.82196C29.5871 7.3006 28.4273 7.6242 27.2098 7.76959C28.4524 7.02486 29.4067 5.84536 29.8559 4.44012C28.6932 5.12981 27.4053 5.63056 26.0344 5.90051C24.9367 4.73089 23.3727 4 21.6418 4C18.318 4 15.6235 6.6946 15.6235 10.018C15.6235 10.4897 15.6767 10.9489 15.7793 11.3894C10.7777 11.1384 6.34335 8.74254 3.37515 5.1016C2.85713 5.99043 2.56035 7.02421 2.56035 8.1271C2.56035 10.2149 3.62279 12.057 5.23757 13.1363C4.25111 13.105 3.32311 12.8342 2.51175 12.3835C2.51132 12.4086 2.51121 12.4338 2.51121 12.4591C2.51121 15.375 4.58565 17.8073 7.33873 18.3602C6.83369 18.4977 6.30205 18.5712 5.75323 18.5712C5.36536 18.5712 4.98844 18.5335 4.62095 18.4632C5.38682 20.8542 7.60933 22.5941 10.2428 22.6428C8.18303 24.2568 5.58821 25.2188 2.76861 25.2188C2.28289 25.2188 1.80382 25.1904 1.33301 25.1348C3.99639 26.8423 7.15965 27.8385 10.5582 27.8385C21.6277 27.8385 27.6809 18.6685 27.6809 10.7158C27.6809 10.4549 27.675 10.1953 27.6635 9.93727C28.8392 9.08878 29.8595 8.02881 30.6663 6.82196Z" fill="#325444"/>
</svg>
